o Cube.003
usemtl Material
v 7.796503067016602 -0.024650000035762787 -0.6129080057144165
v 7.796502113342285 2.491115093231201 -0.6129069924354553
v 7.796502113342285 2.4911139011383057 0.464044988155365
v 7.796503067016602 -0.024650000035762787 -0.6129080057144165
v 7.796502113342285 2.4911139011383057 0.464044988155365
v 7.796503067016602 -0.024651000276207924 0.4640440046787262
v 7.796503067016602 -0.024651000276207924 0.4640440046787262
v 7.796502113342285 2.4911139011383057 0.464044988155365
v 3.475872039794922 2.4911139011383057 0.46404600143432617
v 7.796503067016602 -0.024651000276207924 0.4640440046787262
v 3.475872039794922 2.4911139011383057 0.46404600143432617
v 3.4758729934692383 -0.02465200051665306 0.4640440046787262
v 3.4758729934692383 -0.02465200051665306 0.4640440046787262
v 3.475872039794922 2.4911139011383057 0.46404600143432617
v 3.475872039794922 2.4911139011383057 -0.6129059791564941
v 3.4758729934692383 -0.02465200051665306 0.4640440046787262
v 3.475872039794922 2.4911139011383057 -0.6129059791564941
v 3.4758729934692383 -0.024651000276207924 -0.6129080057144165
v 3.4758729934692383 -0.024651000276207924 -0.6129080057144165
v 3.475872039794922 2.4911139011383057 -0.6129059791564941
v 7.796502113342285 2.491115093231201 -0.6129069924354553
v 3.4758729934692383 -0.024651000276207924 -0.6129080057144165
v 7.796502113342285 2.491115093231201 -0.6129069924354553
v 7.796503067016602 -0.024650000035762787 -0.6129080057144165
v 7.796503067016602 -0.024651000276207924 0.4640440046787262
v 3.4758729934692383 -0.02465200051665306 0.4640440046787262
v 3.4758729934692383 -0.024651000276207924 -0.6129080057144165
v 7.796503067016602 -0.024651000276207924 0.4640440046787262
v 3.4758729934692383 -0.024651000276207924 -0.6129080057144165
v 7.796503067016602 -0.024650000035762787 -0.6129080057144165
v 3.475872039794922 2.4911139011383057 0.46404600143432617
v 7.796502113342285 2.4911139011383057 0.464044988155365
v 7.796502113342285 2.491115093231201 -0.6129069924354553
v 3.475872039794922 2.4911139011383057 0.46404600143432617
v 7.796502113342285 2.491115093231201 -0.6129069924354553
v 3.475872039794922 2.4911139011383057 -0.6129059791564941
vt 0.5768849849700928 0.3353999853134155
vt 0.5768849849700928 0.6685050129890442
vt 0.5071240067481995 0.6685050129890442
vt 0.5768849849700928 0.3353999853134155
vt 0.5071240067481995 0.6685050129890442
vt 0.5071240067481995 0.3353999853134155
vt 0.39471501111984253 0.0001320000010309741
vt 0.5765770077705383 0.0001320000010309741
vt 0.5765770077705383 0.33350899815559387
vt 0.39471501111984253 0.0001320000010309741
vt 0.5765770077705383 0.33350899815559387
vt 0.39471501111984253 0.33350899815559387
vt 0.5071250200271606 0.3353999853134155
vt 0.5071240067481995 0.6685050129890442
vt 0.5768849849700928 0.6685050129890442
vt 0.5071250200271606 0.3353999853134155
vt 0.5768849849700928 0.6685050129890442
vt 0.5768849849700928 0.3353999853134155
vt 0.39471501111984253 0.0001320000010309741
vt 0.5765770077705383 0.0001320000010309741
vt 0.5765770077705383 0.33350899815559387
vt 0.39471501111984253 0.0001320000010309741
vt 0.5765770077705383 0.33350899815559387
vt 0.39471501111984253 0.33350899815559387
vt 0.43466898798942566 0.668923020362854
vt 0.43466898798942566 0.3351829946041107
vt 0.5044419765472412 0.3351829946041107
vt 0.43466898798942566 0.668923020362854
vt 0.5044419765472412 0.3351829946041107
vt 0.5044419765472412 0.668923020362854
vt 0.43466898798942566 0.668923020362854
vt 0.43466898798942566 0.3351840078830719
vt 0.5044419765472412 0.3351840078830719
vt 0.43466898798942566 0.668923020362854
vt 0.5044419765472412 0.3351840078830719
vt 0.5044419765472412 0.668923020362854
vn 1 0 0
vn 1 0 0
vn 1 0 0
vn 1 0 0
vn 1 0 0
vn 1 0 0
vn 0 0 1
vn 0 0 1
vn 0 0 1
vn 0 0 1
vn 0 0 1
vn 0 0 1
vn -1 0 0
vn -1 0 0
vn -1 0 0
vn -1 0 0
vn -1 0 0
vn -1 0 0
vn 0 0 -1
vn 0 0 -1
vn 0 0 -1
vn 0 0 -1
vn 0 0 -1
vn 0 0 -1
vn 0 -1 0
vn 0 -1 0
vn 0 -1 0
vn 0 -1 0
vn 0 -1 0
vn 0 -1 0
vn 0 1 0
vn 0 1 0
vn 0 1 0
vn 0 1 0
vn 0 1 0
vn 0 1 0
f 1/1/1 2/2/2 3/3/3
f 4/4/4 5/5/5 6/6/6
f 7/7/7 8/8/8 9/9/9
f 10/10/10 11/11/11 12/12/12
f 13/13/13 14/14/14 15/15/15
f 16/16/16 17/17/17 18/18/18
f 19/19/19 20/20/20 21/21/21
f 22/22/22 23/23/23 24/24/24
f 25/25/25 26/26/26 27/27/27
f 28/28/28 29/29/29 30/30/30
f 31/31/31 32/32/32 33/33/33
f 34/34/34 35/35/35 36/36/36
