o Cube.002
usemtl Material
v -1.1469910144805908 0.009658999741077423 0.5911589860916138
v -1.1469910144805908 3.553642988204956 0.5911589860916138
v -1.1469910144805908 3.553642988204956 -0.8099930286407471
v -1.1469910144805908 0.009658999741077423 0.5911589860916138
v -1.1469910144805908 3.553642988204956 -0.8099930286407471
v -1.1469910144805908 0.009658999741077423 -0.8099930286407471
v -1.1469910144805908 0.009658999741077423 -0.8099930286407471
v -1.1469910144805908 3.553642988204956 -0.8099930286407471
v 2.7753219604492188 3.553642988204956 -0.8099930286407471
v -1.1469910144805908 0.009658999741077423 -0.8099930286407471
v 2.7753219604492188 3.553642988204956 -0.8099930286407471
v 2.7753219604492188 0.009658999741077423 -0.8099930286407471
v 2.7753219604492188 0.009658999741077423 -0.8099930286407471
v 2.7753219604492188 3.553642988204956 -0.8099930286407471
v 2.7753219604492188 3.553642988204956 0.5911589860916138
v 2.7753219604492188 0.009658999741077423 -0.8099930286407471
v 2.7753219604492188 3.553642988204956 0.5911589860916138
v 2.7753219604492188 0.009658999741077423 0.5911589860916138
v 2.7753219604492188 0.009658999741077423 0.5911589860916138
v 2.7753219604492188 3.553642988204956 0.5911589860916138
v -1.1469910144805908 3.553642988204956 0.5911589860916138
v 2.7753219604492188 0.009658999741077423 0.5911589860916138
v -1.1469910144805908 3.553642988204956 0.5911589860916138
v -1.1469910144805908 0.009658999741077423 0.5911589860916138
v -1.1469910144805908 0.009658999741077423 -0.8099930286407471
v 2.7753219604492188 0.009658999741077423 -0.8099930286407471
v 2.7753219604492188 0.009658999741077423 0.5911589860916138
v -1.1469910144805908 0.009658999741077423 -0.8099930286407471
v 2.7753219604492188 0.009658999741077423 0.5911589860916138
v -1.1469910144805908 0.009658999741077423 0.5911589860916138
v 2.7753219604492188 3.553642988204956 -0.8099930286407471
v -1.1469910144805908 3.553642988204956 -0.8099930286407471
v -1.1469910144805908 3.553642988204956 0.5911589860916138
v 2.7753219604492188 3.553642988204956 -0.8099930286407471
v -1.1469910144805908 3.553642988204956 0.5911589860916138
v 2.7753219604492188 3.553642988204956 0.5911589860916138
vt 0.6616420149803162 0.005253999959677458
vt 0.6616420149803162 0.27221500873565674
vt 0.5744389891624451 0.27221500873565674
vt 0.6616420149803162 0.005253999959677458
vt 0.5744389891624451 0.27221500873565674
vt 0.5744389891624451 0.005253999959677458
vt 0.9991499781608582 0.001290000043809414
vt 0.9991499781608582 0.30153000354766846
vt 0.6630229949951172 0.30153000354766846
vt 0.9991499781608582 0.001290000043809414
vt 0.6630229949951172 0.30153000354766846
vt 0.6630229949951172 0.001290000043809414
vt 0.6590020060539246 0.2926110029220581
vt 0.6590020060539246 0.6174169778823853
vt 0.5813329815864563 0.6174169778823853
vt 0.6590020060539246 0.2926110029220581
vt 0.5813329815864563 0.6174169778823853
vt 0.5813329815864563 0.2926110029220581
vt 0.9991499781608582 0.3041459918022156
vt 0.9991499781608582 0.6043869853019714
vt 0.6630229949951172 0.6043869853019714
vt 0.9991499781608582 0.3041459918022156
vt 0.6630229949951172 0.6043869853019714
vt 0.6630229949951172 0.3041459918022156
vt 0.6590269804000854 0.2929530143737793
vt 0.6590269804000854 0.6173790097236633
vt 0.5811579823493958 0.6173790097236633
vt 0.6590269804000854 0.2929530143737793
vt 0.5811579823493958 0.6173790097236633
vt 0.5811579823493958 0.2929530143737793
vt 0.6590269804000854 0.29787498712539673
vt 0.6590269804000854 0.6173790097236633
vt 0.5811579823493958 0.6173790097236633
vt 0.6590269804000854 0.29787498712539673
vt 0.5811579823493958 0.6173790097236633
vt 0.5811579823493958 0.29787498712539673
vn -1 0 0
vn -1 0 0
vn -1 0 0
vn -1 0 0
vn -1 0 0
vn -1 0 0
vn 0 0 -1
vn 0 0 -1
vn 0 0 -1
vn 0 0 -1
vn 0 0 -1
vn 0 0 -1
vn 1 0 0
vn 1 0 0
vn 1 0 0
vn 1 0 0
vn 1 0 0
vn 1 0 0
vn 0 0 1
vn 0 0 1
vn 0 0 1
vn 0 0 1
vn 0 0 1
vn 0 0 1
vn 0 -1 0
vn 0 -1 0
vn 0 -1 0
vn 0 -1 0
vn 0 -1 0
vn 0 -1 0
vn 0 1 0
vn 0 1 0
vn 0 1 0
vn 0 1 0
vn 0 1 0
vn 0 1 0
f 1/1/1 2/2/2 3/3/3
f 4/4/4 5/5/5 6/6/6
f 7/7/7 8/8/8 9/9/9
f 10/10/10 11/11/11 12/12/12
f 13/13/13 14/14/14 15/15/15
f 16/16/16 17/17/17 18/18/18
f 19/19/19 20/20/20 21/21/21
f 22/22/22 23/23/23 24/24/24
f 25/25/25 26/26/26 27/27/27
f 28/28/28 29/29/29 30/30/30
f 31/31/31 32/32/32 33/33/33
f 34/34/34 35/35/35 36/36/36
