o Cube.001
usemtl Material
v -6.814321994781494 0.000043000000005122274 0.315528005361557
v -6.814321994781494 2.5147008895874023 0.315528005361557
v -6.814321994781494 2.5147008895874023 -0.5343620181083679
v -6.814321994781494 0.000043000000005122274 0.315528005361557
v -6.814321994781494 2.5147008895874023 -0.5343620181083679
v -6.814321994781494 0.000043000000005122274 -0.5343620181083679
v -6.814321994781494 0.000043000000005122274 -0.5343620181083679
v -6.814321994781494 2.5147008895874023 -0.5343620181083679
v -2.308016061782837 2.5147008895874023 -0.5343620181083679
v -6.814321994781494 0.000043000000005122274 -0.5343620181083679
v -2.308016061782837 2.5147008895874023 -0.5343620181083679
v -2.308016061782837 0.000043000000005122274 -0.5343620181083679
v -2.308016061782837 0.000043000000005122274 -0.5343620181083679
v -2.308016061782837 2.5147008895874023 -0.5343620181083679
v -2.308016061782837 2.5147008895874023 0.315528005361557
v -2.308016061782837 0.000043000000005122274 -0.5343620181083679
v -2.308016061782837 2.5147008895874023 0.315528005361557
v -2.308016061782837 0.000043000000005122274 0.315528005361557
v -2.308016061782837 0.000043000000005122274 0.315528005361557
v -2.308016061782837 2.5147008895874023 0.315528005361557
v -6.814321994781494 2.5147008895874023 0.315528005361557
v -2.308016061782837 0.000043000000005122274 0.315528005361557
v -6.814321994781494 2.5147008895874023 0.315528005361557
v -6.814321994781494 0.000043000000005122274 0.315528005361557
v -6.814321994781494 0.000043000000005122274 -0.5343620181083679
v -2.308016061782837 0.000043000000005122274 -0.5343620181083679
v -2.308016061782837 0.000043000000005122274 0.315528005361557
v -6.814321994781494 0.000043000000005122274 -0.5343620181083679
v -2.308016061782837 0.000043000000005122274 0.315528005361557
v -6.814321994781494 0.000043000000005122274 0.315528005361557
v -2.308016061782837 2.5147008895874023 -0.5343620181083679
v -6.814321994781494 2.5147008895874023 -0.5343620181083679
v -6.814321994781494 2.5147008895874023 0.315528005361557
v -2.308016061782837 2.5147008895874023 -0.5343620181083679
v -6.814321994781494 2.5147008895874023 0.315528005361557
v -2.308016061782837 2.5147008895874023 0.315528005361557
vt 0.6395930051803589 0.8010990023612976
vt 0.6395930051803589 0.9994320273399353
vt 0.5831720232963562 0.9994320273399353
vt 0.6395930051803589 0.8010990023612976
vt 0.5831720232963562 0.9994320273399353
vt 0.5831720232963562 0.8010990023612976
vt 0.9991499781608582 0.8005470037460327
vt 0.9991499781608582 0.9997910261154175
vt 0.6421070098876953 0.9997910261154175
vt 0.9991499781608582 0.8005470037460327
vt 0.6421070098876953 0.9997910261154175
vt 0.6421070098876953 0.8005470037460327
vt 0.6395930051803589 0.8010990023612976
vt 0.6395930051803589 0.9994320273399353
vt 0.5831720232963562 0.9994320273399353
vt 0.6395930051803589 0.8010990023612976
vt 0.5831720232963562 0.9994320273399353
vt 0.5831720232963562 0.8010990023612976
vt 0.9991499781608582 0.8005470037460327
vt 0.9991499781608582 0.9997910261154175
vt 0.6421070098876953 0.9997910261154175
vt 0.9991499781608582 0.8005470037460327
vt 0.6421070098876953 0.9997910261154175
vt 0.6421070098876953 0.8005470037460327
vt 0.6436740159988403 0.7980589866638184
vt 0.991782009601593 0.7980589866638184
vt 0.991782009601593 0.7409350275993347
vt 0.6436740159988403 0.7980589866638184
vt 0.991782009601593 0.7409350275993347
vt 0.6436740159988403 0.7409350275993347
vt 0.991782009601593 0.7980589866638184
vt 0.6436740159988403 0.7980589866638184
vt 0.6436740159988403 0.7409350275993347
vt 0.991782009601593 0.7980589866638184
vt 0.6436740159988403 0.7409350275993347
vt 0.991782009601593 0.7409350275993347
vn -1 0 0
vn -1 0 0
vn -1 0 0
vn -1 0 0
vn -1 0 0
vn -1 0 0
vn 0 0 -1
vn 0 0 -1
vn 0 0 -1
vn 0 0 -1
vn 0 0 -1
vn 0 0 -1
vn 1 0 0
vn 1 0 0
vn 1 0 0
vn 1 0 0
vn 1 0 0
vn 1 0 0
vn 0 0 1
vn 0 0 1
vn 0 0 1
vn 0 0 1
vn 0 0 1
vn 0 0 1
vn 0 -1 0
vn 0 -1 0
vn 0 -1 0
vn 0 -1 0
vn 0 -1 0
vn 0 -1 0
vn 0 1 0
vn 0 1 0
vn 0 1 0
vn 0 1 0
vn 0 1 0
vn 0 1 0
f 1/1/1 2/2/2 3/3/3
f 4/4/4 5/5/5 6/6/6
f 7/7/7 8/8/8 9/9/9
f 10/10/10 11/11/11 12/12/12
f 13/13/13 14/14/14 15/15/15
f 16/16/16 17/17/17 18/18/18
f 19/19/19 20/20/20 21/21/21
f 22/22/22 23/23/23 24/24/24
f 25/25/25 26/26/26 27/27/27
f 28/28/28 29/29/29 30/30/30
f 31/31/31 32/32/32 33/33/33
f 34/34/34 35/35/35 36/36/36
